<svg width="32" height="32" viewBox="0 0 32 32" fill="none" xmlns="http://www.w3.org/2000/svg">
<g clip-path="url(#clip0_18_36)">
<g clip-path="url(#clip1_18_36)">
<mask id="mask0_18_36" style="mask-type:alpha" maskUnits="userSpaceOnUse" x="0" y="0" width="32" height="32">
<path d="M16 32C24.8366 32 32 24.8366 32 16C32 7.16344 24.8366 0 16 0C7.16344 0 0 7.16344 0 16C0 24.8366 7.16344 32 16 32Z" fill="#D9D9D9"/>
</mask>
<g mask="url(#mask0_18_36)">
<path d="M9.11708 8.82617C9.44289 9.14617 8.94835 9.62908 8.62253 9.30908L0.290894 1.16944L0.77962 0.692352C0.77962 0.692352 8.83199 8.55272 9.11708 8.82617Z" fill="#003462" stroke="#003462"/>
<path d="M31.2203 0.686554L31.709 1.16946L23.3774 9.30328C23.0516 9.62328 22.557 9.14037 22.8887 8.82619C23.1679 8.54692 31.2203 0.686554 31.2203 0.686554Z" fill="#003462" stroke="#003462"/>
<path d="M8.62253 22.7491C8.94835 22.4291 9.44289 22.9178 9.11126 23.232L0.77962 31.3716L0.290894 30.8887C0.290894 30.8887 8.33744 23.0284 8.62253 22.7491Z" fill="#003462" stroke="#003462"/>
<path d="M31.709 30.8829L31.2203 31.3658L22.8887 23.232C22.557 22.912 23.0516 22.4291 23.3774 22.7491C23.6625 23.0225 31.709 30.8829 31.709 30.8829Z" fill="#003462" stroke="#003462"/>
<path d="M9.07049 20.864C9.3963 21.184 8.90176 21.6669 8.57594 21.3411C8.57594 21.3411 4.39267 17.2567 4.06685 16.9367C3.74103 16.6167 4.22976 16.1338 4.56139 16.4538C4.56139 16.4538 8.79121 20.5847 9.07049 20.864Z" fill="#003462" stroke="#003462"/>
<path d="M16.9716 4.41602C16.6457 4.09602 16.1512 4.57893 16.477 4.89893C16.8028 5.21311 20.9919 9.30329 20.9919 9.30329C21.3177 9.62329 21.8123 9.14038 21.4865 8.82038C21.2014 8.54693 16.9716 4.41602 16.9716 4.41602Z" fill="#003462" stroke="#003462"/>
<path d="M21.4865 20.9047C21.8123 21.2247 21.3177 21.7076 20.9919 21.3876C20.9919 21.3876 16.8028 17.2974 16.477 16.9774C16.1512 16.6574 16.6457 16.1745 16.9716 16.4945C16.9716 16.4945 21.2014 20.6313 21.4865 20.9047Z" fill="#003462" stroke="#003462"/>
<path d="M27.8923 16.9774C28.2181 16.6574 27.7294 16.1745 27.3977 16.4945C27.0719 16.8145 22.8886 20.9047 22.8886 20.9047C22.5628 21.2247 23.0515 21.7018 23.3832 21.3876C23.6624 21.1084 27.8923 16.9774 27.8923 16.9774Z" fill="#003462" stroke="#003462"/>
<path d="M11.0079 9.30327C10.6821 9.62327 10.1876 9.14036 10.5134 8.82036C10.5134 8.82036 14.6967 4.736 15.0225 4.416C15.3541 4.096 15.8429 4.57891 15.517 4.89309C15.517 4.89309 11.2872 9.024 11.0079 9.30327Z" fill="#003462" stroke="#003462"/>
<path d="M15.517 16.9774C15.8429 16.6574 15.3541 16.1745 15.0225 16.4945C14.6967 16.8145 10.5134 20.9047 10.5134 20.9047C10.1876 21.2247 10.6821 21.7018 11.0079 21.3876C11.2872 21.1084 15.517 16.9774 15.517 16.9774Z" fill="#003462" stroke="#003462"/>
<path d="M9.11699 11.1534C9.44281 10.8334 8.94827 10.3505 8.62245 10.6705C8.62245 10.6705 4.43918 14.7607 4.11336 15.0807C3.78754 15.4007 4.27627 15.8778 4.6079 15.5636C4.60208 15.5636 8.83772 11.4269 9.11699 11.1534Z" fill="#003462" stroke="#003462"/>
<path d="M16.9716 27.6422C16.6457 27.9622 16.1512 27.4793 16.477 27.1593C16.8028 26.8393 20.9919 22.7549 20.9919 22.7549C21.3177 22.4349 21.8123 22.9178 21.4865 23.2378C21.2014 23.5113 16.9716 27.6422 16.9716 27.6422Z" fill="#003462" stroke="#003462"/>
<path d="M21.4865 11.1534C21.8123 10.8334 21.3177 10.3505 20.9919 10.6705C20.9919 10.6705 16.8028 14.7607 16.477 15.0807C16.1512 15.4007 16.6457 15.8778 16.9716 15.5636C16.9716 15.5636 21.2014 11.4269 21.4865 11.1534Z" fill="#003462" stroke="#003462"/>
<path d="M27.8923 15.0807C28.2181 15.4007 27.7294 15.8836 27.3977 15.5636C27.0719 15.2436 22.8886 11.1534 22.8886 11.1534C22.5628 10.8393 23.0515 10.3505 23.3832 10.6764C23.6624 10.9498 27.8923 15.0807 27.8923 15.0807Z" fill="#003462" stroke="#003462"/>
<path d="M11.0079 22.7549C10.6821 22.4349 10.1876 22.9178 10.5134 23.2378C10.5134 23.2378 14.6967 27.3222 15.0225 27.6422C15.3541 27.9622 15.8429 27.4793 15.517 27.1651C15.517 27.1651 11.2872 23.0284 11.0079 22.7549Z" fill="#003462" stroke="#003462"/>
<path d="M15.517 15.0807C15.8429 15.4007 15.3541 15.8836 15.0225 15.5636C14.6967 15.2436 10.5134 11.1534 10.5134 11.1534C10.1876 10.8393 10.6821 10.3505 11.0079 10.6764C11.2872 10.9498 15.517 15.0807 15.517 15.0807Z" fill="#003462" stroke="#003462"/>
<path d="M-2.56006 21.7309V22.4116H8.47703C8.93667 22.4116 8.93667 21.7309 8.47703 21.7309H-2.56006Z" fill="#003462" stroke="#003462"/>
<path d="M34.5599 21.7309V22.4116H23.5228C23.0573 22.4116 23.0573 21.7309 23.5228 21.7309H34.5599Z" fill="#003462" stroke="#003462"/>
<path d="M-2.56006 9.64655V10.3273H8.47703C8.93667 10.3273 8.93667 9.64655 8.47703 9.64655H-2.56006Z" fill="#003462" stroke="#003462"/>
<path d="M34.5599 9.64655V10.3273H23.5228C23.0573 10.3273 23.0573 9.64655 23.5228 9.64655H34.5599Z" fill="#003462" stroke="#003462"/>
<path d="M11.1476 21.7309C10.6879 21.7309 10.6879 22.4116 11.1476 22.4116H20.8465C21.3119 22.4116 21.3119 21.7309 20.8465 21.7309H11.1476Z" fill="#003462" stroke="#003462"/>
<path d="M20.8465 9.64655C21.3119 9.64655 21.3119 10.3273 20.8465 10.3273H11.1476C10.6879 10.3273 10.6879 9.64655 11.1476 9.64655H20.8465Z" fill="#003462" stroke="#003462"/>
<path d="M21.8356 34.1527H22.5338V23.3774C22.5338 22.9236 21.8356 22.9236 21.8356 23.3774V34.1527Z" fill="#003462" stroke="#003462"/>
<path d="M21.8356 -2.09454H22.5338V8.68073C22.5338 9.13455 21.8356 9.13455 21.8356 8.68073V-2.09454Z" fill="#003462" stroke="#003462"/>
<path d="M21.8356 20.7651C21.8356 21.2189 22.5338 21.2189 22.5338 20.7651V11.2931C22.5338 10.8393 21.8356 10.8393 21.8356 11.2931V20.7651Z" fill="#003462" stroke="#003462"/>
<path d="M9.46606 23.3774C9.46606 22.9236 10.1642 22.9236 10.1642 23.3774V34.1527H9.46606V23.3774Z" fill="#003462" stroke="#003462"/>
<path d="M9.46606 8.68073C9.46606 9.13455 10.1584 9.13455 10.1584 8.68073V-2.09454H9.46606V8.68073Z" fill="#003462" stroke="#003462"/>
<path d="M9.46606 11.2931C9.46606 10.8393 10.1584 10.8393 10.1584 11.2931V20.7651C10.1584 21.2189 9.46606 21.2189 9.46606 20.7651V11.2931Z" fill="#003462" stroke="#003462"/>
</g>
</g>
</g>
<defs>
<clipPath id="clip0_18_36">
<rect width="32" height="32" fill="white"/>
</clipPath>
<clipPath id="clip1_18_36">
<rect width="32" height="32" fill="white"/>
</clipPath>
</defs>
</svg>
