<?xml version="1.0"?>
<!DOCTYPE svg PUBLIC "-//W3C//DTD SVG 1.1//EN"
          "http://www.w3.org/Graphics/SVG/1.1/DTD/svg11.dtd">

<svg  preserveAspectRatio="meet" height="550" width="550" viewBox="489 277 550 550" fill="none" xmlns="http://www.w3.org/2000/svg">
<style type="text/css">
    .logo-color {
        fill: #003462;
    }
</style>

<mask id="circle_crop" style="mask-type:alpha" maskUnits="userSpaceOnUse" x="489" y="277" width="550" height="550">
<circle cx="764" cy="552" r="275" fill="#d9d9d9"/>
</mask>
<g mask="url(#circle_crop)">

<path class="logo-color" fill="black" d="M 645.7 428.7 C 651.3 434.2 642.8 442.5 637.2 437 L 494 297.1 L 502.4 288.9 C 502.4 288.9 640.8 424 645.7 428.7 Z"/>

<path class="logo-color" fill="black" d="M 1025.6 288.8 L 1034 297.1 L 890.8 436.9 C 885.2 442.4 876.7 434.1 882.4 428.7 C 887.2 423.9 1025.6 288.8 1025.6 288.8 Z"/>
<path class="logo-color" fill="black" d="M 637.2 668 C 642.8 662.5 651.3 670.9 645.6 676.3 L 502.4 816.2 L 494 807.9 C 494 807.9 632.3 672.8 637.2 668 Z"/>

<path class="logo-color" fill="black" d="M 1034 807.8 L 1025.6 816.1 L 882.4 676.3 C 876.7 670.8 885.2 662.5 890.8 668 C 895.7 672.7 1034 807.8 1034 807.8 Z"/>

<path class="logo-color" fill="black" d="M 644.9 635.6 C 650.5 641.1 642 649.4 636.4 643.8 C 636.4 643.8 564.5 573.6 558.9 568.1 C 553.3 562.6 561.7 554.3 567.4 559.8 C 567.4 559.8 640.1 630.8 644.9 635.6 Z"/>

<path class="logo-color" fill="black" d="M 780.7 352.9 C 775.1 347.4 766.6 355.7 772.2 361.2 C 777.8 366.6 849.8 436.9 849.8 436.9 C 855.4 442.4 863.9 434.1 858.3 428.6 C 853.4 423.9 780.7 352.9 780.7 352.9 Z"/>

<path d="M 858.3 636.3 C 863.9 641.8 855.4 650.1 849.8 644.6 C 849.8 644.6 777.8 574.3 772.2 568.8 C 766.6 563.3 775.1 555 780.7 560.5 C 780.7 560.5 853.4 631.6 858.3 636.3 Z"
class="logo-color" fill="black" />

<path d="M 968.4 568.8 C 974 563.3 965.6 555 959.9 560.5 C 954.3 566 882.4 636.3 882.4 636.3 C 876.8 641.8 885.2 650 890.9 644.6 C 895.7 639.8 968.4 568.8 968.4 568.8 Z" class="logo-color" fill="black" />

<path d="M 678.2 436.9 C 672.6 442.4 664.1 434.1 669.7 428.6 C 669.7 428.6 741.6 358.4 747.2 352.9 C 752.9 347.4 761.3 355.7 755.7 361.1 C 755.7 361.1 683 432.1 678.2 436.9 Z" class="logo-color" fill="black" />

<path d="M 755.7 568.8 C 761.3 563.3 752.9 555 747.2 560.5 C 741.6 566 669.7 636.3 669.7 636.3 C 664.1 641.8 672.6 650 678.2 644.6 C 683 639.8 755.7 568.8 755.7 568.8 Z" class="logo-color" fill="black" />

<path d="M 645.7 468.7 C 651.3 463.2 642.8 454.9 637.2 460.4 C 637.2 460.4 565.3 530.7 559.7 536.2 C 554.1 541.7 562.5 549.9 568.2 544.5 C 568.1 544.5 640.9 473.4 645.7 468.7 Z" class="logo-color" fill="black" />

<path d="M 780.7 752.1 C 775.1 757.6 766.6 749.3 772.2 743.8 C 777.8 738.3 849.8 668.1 849.8 668.1 C 855.4 662.6 863.9 670.9 858.3 676.4 C 853.4 681.1 780.7 752.1 780.7 752.1 Z" class="logo-color" fill="black" />

<path d="M 858.3 468.7 C 863.9 463.2 855.4 454.9 849.8 460.4 C 849.8 460.4 777.8 530.7 772.2 536.2 C 766.6 541.7 775.1 549.9 780.7 544.5 C 780.7 544.5 853.4 473.4 858.3 468.7 Z" class="logo-color" fill="black" />

<path d="M 968.4 536.2 C 974 541.7 965.6 550 959.9 544.5 C 954.3 539 882.4 468.7 882.4 468.7 C 876.8 463.3 885.2 454.9 890.9 460.5 C 895.7 465.2 968.4 536.2 968.4 536.2 Z" class="logo-color" fill="black" />

<path d="M 678.2 668.1 C 672.6 662.6 664.1 670.9 669.7 676.4 C 669.7 676.4 741.6 746.6 747.2 752.1 C 752.9 757.6 761.3 749.3 755.7 743.9 C 755.7 743.9 683 672.8 678.2 668.1 Z" class="logo-color" fill="black" />

<path d="M 755.7 536.2 C 761.3 541.7 752.9 550 747.2 544.5 C 741.6 539 669.7 468.7 669.7 468.7 C 664.1 463.3 672.6 454.9 678.2 460.5 C 683 465.2 755.7 536.2 755.7 536.2 Z" class="logo-color" fill="black" />

<path d="M 445 650.5 V 662.2 H 634.7 C 642.6 662.2 642.6 650.5 634.7 650.5 H 445 Z" class="logo-color" fill="black" />

<path d="M 1083 650.5 V 662.2 H 893.3 C 885.3 662.2 885.3 650.5 893.3 650.5 H 1083 Z" class="logo-color" fill="black" />

<path d="M 445 442.8 V 454.5 H 634.7 C 642.6 454.5 642.6 442.8 634.7 442.8 H 445 Z" class="logo-color" fill="black" />

<path d="M 1083 442.8 V 454.5 H 893.3 C 885.3 454.5 885.3 442.8 893.3 442.8 H 1083 Z" class="logo-color" fill="black" />

<path d="M 680.6 650.5 C 672.7 650.5 672.7 662.2 680.6 662.2 H 847.3 C 855.3 662.2 855.3 650.5 847.3 650.5 H 680.6 Z" class="logo-color" fill="black" />

<path d="M 847.3 442.8 C 855.3 442.8 855.3 454.5 847.3 454.5 H 680.6 C 672.7 454.5 672.7 442.8 680.6 442.8 H 847.3 Z" class="logo-color" fill="black" />

<path d="M 864.3 864 H 876.3 V 678.8 C 876.3 671 864.3 671 864.3 678.8 V 864 Z" class="logo-color" fill="black" />

<path d="M 864.3 241 H 876.3 V 426.2 C 876.3 434 864.3 434 864.3 426.2 V 241 Z" class="logo-color" fill="black" />

<path d="M 864.3 633.9 C 864.3 641.7 876.3 641.7 876.3 633.9 V 471.1 C 876.3 463.3 864.3 463.3 864.3 471.1 V 633.9 Z" class="logo-color" fill="black" />

<path d="M 651.7 678.8 C 651.7 671 663.7 671 663.7 678.8 V 864 H 651.7 V 678.8 Z" class="logo-color" fill="black" />

<path d="M 651.7 426.2 C 651.7 434 663.6 434 663.6 426.2 V 241 H 651.7 V 426.2 Z" class="logo-color" fill="black" />

<path class="logo-color" fill="black" d="M 651.7 471.1 C 651.7 463.3 663.6 463.3 663.6 471.1 V 633.9 C 663.6 641.7 651.7 641.7 651.7 633.9 V 471.1 Z"/>

</g>
</svg>
